<svg width="179" height="86" viewBox="0 0 179 86" fill="none" xmlns="http://www.w3.org/2000/svg">
<path d="M71.752 75.192C70.9307 75.192 70.216 75.0427 69.608 74.744C69 74.4453 68.5307 74.0293 68.2 73.496C67.8693 72.9627 67.704 72.344 67.704 71.64H69.112C69.112 72.0773 69.2133 72.4827 69.416 72.856C69.6187 73.2187 69.912 73.512 70.296 73.736C70.6907 73.9493 71.176 74.056 71.752 74.056C72.5093 74.056 73.096 73.8747 73.512 73.512C73.928 73.1493 74.136 72.696 74.136 72.152C74.136 71.704 74.04 71.3467 73.848 71.08C73.656 70.8027 73.3947 70.5787 73.064 70.408C72.744 70.2373 72.3707 70.088 71.944 69.96C71.528 69.832 71.0907 69.688 70.632 69.528C69.768 69.2293 69.128 68.8613 68.712 68.424C68.296 67.976 68.088 67.3947 68.088 66.68C68.0773 66.0827 68.216 65.5547 68.504 65.096C68.792 64.6267 69.1973 64.264 69.72 64.008C70.2533 63.7413 70.8827 63.608 71.608 63.608C72.3227 63.608 72.9413 63.7413 73.464 64.008C73.9973 64.2747 74.408 64.6427 74.696 65.112C74.9947 65.5813 75.1493 66.1147 75.16 66.712H73.752C73.752 66.4027 73.672 66.0987 73.512 65.8C73.352 65.4907 73.1067 65.24 72.776 65.048C72.456 64.856 72.0507 64.76 71.56 64.76C70.952 64.7493 70.4507 64.904 70.056 65.224C69.672 65.544 69.48 65.9867 69.48 66.552C69.48 67.032 69.6133 67.4 69.88 67.656C70.1573 67.912 70.5413 68.1253 71.032 68.296C71.5227 68.456 72.088 68.6427 72.728 68.856C73.2613 69.048 73.7413 69.272 74.168 69.528C74.5947 69.784 74.9253 70.1147 75.16 70.52C75.4053 70.9253 75.528 71.4427 75.528 72.072C75.528 72.6053 75.3893 73.112 75.112 73.592C74.8347 74.0613 74.4133 74.4453 73.848 74.744C73.2933 75.0427 72.5947 75.192 71.752 75.192ZM82.6724 75V64.904H79.3284V63.8H87.3604V64.904H84.0164V75H82.6724ZM95.9295 75.192C95.1615 75.192 94.4628 75.0427 93.8335 74.744C93.2148 74.4347 92.7188 73.96 92.3455 73.32C91.9722 72.68 91.7855 71.864 91.7855 70.872V63.8H93.1295V70.888C93.1295 71.976 93.3908 72.7653 93.9135 73.256C94.4362 73.7467 95.1188 73.992 95.9615 73.992C96.8042 73.992 97.4815 73.7467 97.9935 73.256C98.5055 72.7653 98.7615 71.976 98.7615 70.888V63.8H100.106V70.872C100.106 71.864 99.9188 72.68 99.5455 73.32C99.1722 73.96 98.6708 74.4347 98.0415 74.744C97.4122 75.0427 96.7082 75.192 95.9295 75.192ZM105.261 75V63.8H108.701C110.675 63.8 112.126 64.3013 113.054 65.304C113.992 66.3067 114.462 67.6827 114.462 69.432C114.462 71.1493 113.992 72.5093 113.054 73.512C112.126 74.504 110.675 75 108.701 75H105.261ZM106.605 73.88H108.669C109.757 73.88 110.621 73.704 111.261 73.352C111.912 72.9893 112.376 72.4773 112.653 71.816C112.931 71.144 113.069 70.3493 113.069 69.432C113.069 68.4933 112.931 67.688 112.653 67.016C112.376 66.344 111.912 65.8267 111.261 65.464C110.621 65.1013 109.757 64.92 108.669 64.92H106.605V73.88ZM119.282 75V63.8H120.626V75H119.282ZM130.969 75.192C129.87 75.192 128.905 74.952 128.073 74.472C127.252 73.9813 126.606 73.2987 126.137 72.424C125.678 71.5493 125.449 70.5413 125.449 69.4C125.449 68.2587 125.678 67.256 126.137 66.392C126.606 65.5173 127.252 64.8347 128.073 64.344C128.905 63.8533 129.87 63.608 130.969 63.608C132.078 63.608 133.044 63.8533 133.865 64.344C134.697 64.8347 135.342 65.5173 135.801 66.392C136.26 67.256 136.489 68.2587 136.489 69.4C136.489 70.5413 136.26 71.5493 135.801 72.424C135.342 73.2987 134.697 73.9813 133.865 74.472C133.044 74.952 132.078 75.192 130.969 75.192ZM130.969 74.008C131.79 74.008 132.51 73.8267 133.129 73.464C133.758 73.0907 134.244 72.5627 134.585 71.88C134.937 71.1867 135.113 70.36 135.113 69.4C135.113 68.44 134.937 67.6187 134.585 66.936C134.244 66.2533 133.758 65.7307 133.129 65.368C132.51 64.9947 131.79 64.808 130.969 64.808C130.148 64.808 129.422 64.9947 128.793 65.368C128.174 65.7307 127.689 66.2533 127.337 66.936C126.996 67.6187 126.825 68.44 126.825 69.4C126.825 70.36 126.996 71.1867 127.337 71.88C127.689 72.5627 128.174 73.0907 128.793 73.464C129.422 73.8267 130.148 74.008 130.969 74.008Z" fill="#565656"/>
<path d="M67.04 48V27H70.88V48H67.04ZM74.8602 48V33.12H78.2502L78.5502 35.64C79.0102 34.76 79.6702 34.06 80.5302 33.54C81.4102 33.02 82.4402 32.76 83.6202 32.76C85.4602 32.76 86.8902 33.34 87.9102 34.5C88.9302 35.66 89.4402 37.36 89.4402 39.6V48H85.6002V39.96C85.6002 38.68 85.3402 37.7 84.8202 37.02C84.3002 36.34 83.4902 36 82.3902 36C81.3102 36 80.4202 36.38 79.7202 37.14C79.0402 37.9 78.7002 38.96 78.7002 40.32V48H74.8602ZM98.0921 48V30.09H91.9721V27H108.082V30.09H101.932V48H98.0921ZM115.281 48.36C113.841 48.36 112.541 48.03 111.381 47.37C110.241 46.71 109.331 45.8 108.651 44.64C107.991 43.46 107.661 42.1 107.661 40.56C107.661 39.02 108.001 37.67 108.681 36.51C109.361 35.33 110.271 34.41 111.411 33.75C112.571 33.09 113.871 32.76 115.311 32.76C116.731 32.76 118.011 33.09 119.151 33.75C120.311 34.41 121.221 35.33 121.881 36.51C122.561 37.67 122.901 39.02 122.901 40.56C122.901 42.1 122.561 43.46 121.881 44.64C121.221 45.8 120.311 46.71 119.151 47.37C117.991 48.03 116.701 48.36 115.281 48.36ZM115.281 45.03C116.281 45.03 117.151 44.66 117.891 43.92C118.631 43.16 119.001 42.04 119.001 40.56C119.001 39.08 118.631 37.97 117.891 37.23C117.151 36.47 116.291 36.09 115.311 36.09C114.291 36.09 113.411 36.47 112.671 37.23C111.951 37.97 111.591 39.08 111.591 40.56C111.591 42.04 111.951 43.16 112.671 43.92C113.411 44.66 114.281 45.03 115.281 45.03ZM140.675 33.12V48H137.285L136.985 45.48C136.525 46.36 135.855 47.06 134.975 47.58C134.115 48.1 133.095 48.36 131.915 48.36C130.075 48.36 128.645 47.78 127.625 46.62C126.605 45.46 126.095 43.76 126.095 41.52V33.12H129.935V41.16C129.935 42.44 130.195 43.42 130.715 44.1C131.235 44.78 132.045 45.12 133.145 45.12C134.225 45.12 135.105 44.74 135.785 43.98C136.485 43.22 136.835 42.16 136.835 40.8V33.12H140.675ZM151.877 48.36C150.357 48.36 149.017 48.03 147.857 47.37C146.697 46.71 145.777 45.79 145.097 44.61C144.437 43.43 144.107 42.08 144.107 40.56C144.107 39.04 144.437 37.69 145.097 36.51C145.777 35.33 146.697 34.41 147.857 33.75C149.017 33.09 150.357 32.76 151.877 32.76C153.777 32.76 155.377 33.26 156.677 34.26C157.977 35.24 158.807 36.6 159.167 38.34H155.117C154.917 37.62 154.517 37.06 153.917 36.66C153.337 36.24 152.647 36.03 151.847 36.03C150.787 36.03 149.887 36.43 149.147 37.23C148.407 38.03 148.037 39.14 148.037 40.56C148.037 41.98 148.407 43.09 149.147 43.89C149.887 44.69 150.787 45.09 151.847 45.09C152.647 45.09 153.337 44.89 153.917 44.49C154.517 44.09 154.917 43.52 155.117 42.78H159.167C158.807 44.46 157.977 45.81 156.677 46.83C155.377 47.85 153.777 48.36 151.877 48.36ZM162.575 48V26.4H166.415V35.4C166.915 34.58 167.585 33.94 168.425 33.48C169.285 33 170.265 32.76 171.365 32.76C173.205 32.76 174.625 33.34 175.625 34.5C176.645 35.66 177.155 37.36 177.155 39.6V48H173.345V39.96C173.345 38.68 173.085 37.7 172.565 37.02C172.065 36.34 171.265 36 170.165 36C169.085 36 168.185 36.38 167.465 37.14C166.765 37.9 166.415 38.96 166.415 40.32V48H162.575Z" fill="#0F0F0F"/>
<path d="M28.7797 17.2852L46.5332 48.0352H11.0261L28.7797 17.2852Z" fill="#2A30FF"/>
<path d="M13.0156 28.5479L24.274 48.0479H1.75729L13.0156 28.5479Z" fill="#31EE90"/>
<path d="M5.09987 44.25L21.1213 16.5L37.1428 44.25H5.09987Z" stroke="black" stroke-width="2"/>
</svg>
